# xmcd
#
# Track frame offsets:
#	150
#	18773
#	39680
#	64897
#	87898
#	110021
#	128733
#	153127
#	176638
#	201413
#	235165
#
# Disc length: 3401 seconds
#
# Revision: 0
# Processed by: cddbd v1.5.1PL0 Copyright (c) Steve Scherf et al.
# Submitted via: dBpowerAMP V4.0
#
DISCID=8d0d470b
DTITLE=Borris L. Britt - For Every Mountain
DYEAR=2004
DGENRE=Gospel
TTITLE0=A Whole New World
TTITLE1=I Miss My Time WIth You
TTITLE2=For Every Mountain
TTITLE3=His Eye Is On The Sparrow
TTITLE4=When You Believe
TTITLE5=Revive Us Again
TTITLE6=I Beleive I Can Fly
TTITLE7=Changed
TTITLE8=Daystar
TTITLE9=For The Good Of Them
TTITLE10=Joyful, Joyful
EXTD=
EXTT0=
EXTT1=
EXTT2=
EXTT3=
EXTT4=
EXTT5=
EXTT6=
EXTT7=
EXTT8=
EXTT9=
EXTT10=
PLAYORDER=
